<svg width="18" height="14" viewBox="0 0 18 14" fill="none" xmlns="http://www.w3.org/2000/svg">
<path d="M4.00002 13.6667C3.08335 13.6667 2.29863 13.3403 1.64585 12.6875C0.993076 12.0347 0.666687 11.25 0.666687 10.3333V3.66667C0.666687 2.75 0.993076 1.96528 1.64585 1.3125C2.29863 0.659724 3.08335 0.333335 4.00002 0.333335H14C14.9167 0.333335 15.7014 0.659724 16.3542 1.3125C17.007 1.96528 17.3334 2.75 17.3334 3.66667V10.3333C17.3334 11.25 17.007 12.0347 16.3542 12.6875C15.7014 13.3403 14.9167 13.6667 14 13.6667H4.00002ZM4.00002 3.66667H14C14.3056 3.66667 14.5972 3.70139 14.875 3.77084C15.1528 3.84028 15.4167 3.95139 15.6667 4.10417V3.66667C15.6667 3.20834 15.5035 2.81597 15.1771 2.48959C14.8507 2.1632 14.4584 2 14 2H4.00002C3.54169 2 3.14933 2.1632 2.82294 2.48959C2.49655 2.81597 2.33335 3.20834 2.33335 3.66667V4.10417C2.58335 3.95139 2.84724 3.84028 3.12502 3.77084C3.4028 3.70139 3.69446 3.66667 4.00002 3.66667ZM2.45835 6.375L11.7292 8.625C11.8542 8.65278 11.9792 8.65278 12.1042 8.625C12.2292 8.59722 12.3472 8.54167 12.4584 8.45834L15.3542 6.04167C15.2014 5.83334 15.007 5.6632 14.7709 5.53125C14.5347 5.39931 14.2778 5.33334 14 5.33334H4.00002C3.63891 5.33334 3.32294 5.42709 3.0521 5.61459C2.78127 5.80209 2.58335 6.05556 2.45835 6.375Z" fill="#0D0D0D"/>
</svg>
